<svg width="31" height="31" viewBox="0 0 31 31" fill="none" xmlns="http://www.w3.org/2000/svg">
<path d="M0.064914 20.4696C-0.021638 20.2821 -0.021638 20.0657 0.064914 19.8781C2.9067 13.4877 8.69126 9.34766 15.1538 9.34766C21.6164 9.34766 27.4009 13.4877 30.2427 19.8781C30.3292 20.0657 30.3292 20.2821 30.2427 20.4696C27.4009 26.86 21.6164 31.0001 15.1538 31.0001C8.69126 31.0001 2.9067 26.8744 0.064914 20.4696ZM1.52187 20.1811C4.17613 25.9079 9.3981 29.5575 15.1538 29.5575C20.9095 29.5575 26.1315 25.9079 28.7857 20.1811C26.1315 14.4542 20.9239 10.8046 15.1538 10.8046C9.38368 10.8046 4.17613 14.4542 1.52187 20.1811ZM15.1538 25.2299C12.3697 25.2299 10.1049 22.9652 10.1049 20.1811C10.1049 17.397 12.3697 15.1322 15.1538 15.1322C17.9379 15.1322 20.2027 17.397 20.2027 20.1811C20.2027 22.9652 17.9379 25.2299 15.1538 25.2299ZM15.1538 23.7874C17.1445 23.7874 18.7601 22.1718 18.7601 20.1811C18.7601 18.1904 17.1445 16.5747 15.1538 16.5747C13.1631 16.5747 11.5475 18.1904 11.5475 20.1811C11.5475 22.1718 13.1631 23.7874 15.1538 23.7874Z" fill="white"/>
<path fill-rule="evenodd" clip-rule="evenodd" d="M13.4949 0.721266C13.4949 0.317357 13.8122 0 14.2161 0C14.62 0 14.9374 0.317357 14.9374 0.721266V5.04886C14.9374 5.45277 14.62 5.77013 14.2161 5.77013C13.8122 5.77013 13.4949 5.45277 13.4949 5.04886V0.721266ZM26.5931 1.75989C26.8094 1.42811 27.2566 1.34156 27.5884 1.55794C27.9202 1.77432 28.0068 2.2215 27.7904 2.55328L24.9053 6.88088C24.6889 7.21266 24.2417 7.29921 23.91 7.08284C23.5782 6.86646 23.4916 6.41927 23.708 6.08749L26.5931 1.75989ZM1.83921 1.75989L4.72427 6.08749C4.94065 6.41927 4.8541 6.86646 4.52232 7.08284C4.19054 7.29921 3.74335 7.21266 3.52697 6.88088L0.627479 2.56771C0.4111 2.23593 0.497651 1.78874 0.829434 1.57236C1.16122 1.35598 1.6084 1.44253 1.82478 1.77432L1.83921 1.75989Z" fill="white"/>
</svg>
