<svg version="1.0" width="324.000000pt" height="360.000000pt" viewBox="59.587 58.016 208.558 210.762" preserveAspectRatio="xMidYMid meet" xmlns="http://www.w3.org/2000/svg" xmlns:bx="https://boxy-svg.com">
  <defs></defs>
  <g transform="matrix(0.1, 0, 0, -0.1, -40.209724, 372.760376)" fill="#000000" stroke="none"></g>
  <path d="M 71.857 52.355 H 160.805 A 20.509 20.509 0 0 1 181.314 72.864 V 158.196 A 20.509 20.509 0 0 1 160.805 178.705 H 71.857 A 20.509 20.509 0 0 1 51.348 158.196 V 72.864 A 20.509 20.509 0 0 1 71.857 52.355 Z M 58.762 76.872 V 154.188 A 16.802 16.802 0 0 0 75.564 170.99 H 157.098 A 16.802 16.802 0 0 0 173.9 154.188 V 76.872 A 16.802 16.802 0 0 0 157.098 60.07 H 75.564 A 16.802 16.802 0 0 0 58.762 76.872 Z" style="paint-order: fill; fill: rgb(255, 255, 255); stroke: rgb(255, 255, 255);" transform="matrix(1, 0, 0, 1, 48.00104013321217, 45.3572022899163)" bx:shape="frame 51.348 52.355 129.966 126.35 7.414 7.715 20.509 20.509 20.509 20.509 1@83923239"></path>
  <path d="M 83.42 69.823 H 149.021 A 14.629 14.629 0 0 1 163.65 84.452 V 147.351 A 14.629 14.629 0 0 1 149.021 161.98 H 83.42 A 14.629 14.629 0 0 1 68.791 147.351 V 84.452 A 14.629 14.629 0 0 1 83.42 69.823 Z M 76.706 88.309 V 143.493 A 10.672 10.672 0 0 0 87.378 154.165 H 145.064 A 10.672 10.672 0 0 0 155.735 143.493 V 88.309 A 10.672 10.672 0 0 0 145.064 77.638 H 87.378 A 10.672 10.672 0 0 0 76.706 88.309 Z" style="paint-order: fill; fill: rgb(255, 255, 255); stroke: rgb(255, 255, 255);" transform="matrix(1, 0, 0, 1, 48.00104013321217, 45.3572022899163)" bx:shape="frame 68.791 69.823 94.859 92.157 7.915 7.815 14.629 14.629 14.629 14.629 1@6167edfa"></path>
  <rect x="97.645" y="97.917" width="36.853" height="35.504" style="fill: rgb(255, 255, 255); stroke: rgb(255, 255, 255);" rx="7.334" ry="7.334" transform="matrix(1, 0, 0, 1, 48.00104013321217, 45.3572022899163)"></rect>
  <path d="M 68.427 18.481 H 76.217 A 5.947 5.947 0 0 1 82.164 24.428 V 37.735 A 5.947 5.947 0 0 1 76.217 43.682 H 68.427 A 5.947 5.947 0 0 1 62.48 37.735 V 24.428 A 5.947 5.947 0 0 1 68.427 18.481 Z M 67.126 26.311 V 35.852 A 3.624 3.624 0 0 0 70.75 39.476 H 73.894 A 3.624 3.624 0 0 0 77.518 35.852 V 26.311 A 3.624 3.624 0 0 0 73.894 22.687 H 70.75 A 3.624 3.624 0 0 0 67.126 26.311 Z" style="paint-order: fill; opacity: 0.9; fill: rgb(255, 255, 255); stroke: rgb(255, 255, 255);" transform="matrix(1, 0, 0, 1, 48.00104013321217, 45.3572022899163)" bx:shape="frame 62.48 18.481 19.684 25.201 4.646 4.206 5.947 5.947 5.947 5.947 1@89fea1be"></path>
  <path d="M 112.435 18.481 H 120.225 A 5.947 5.947 0 0 1 126.172 24.428 V 37.735 A 5.947 5.947 0 0 1 120.225 43.682 H 112.435 A 5.947 5.947 0 0 1 106.488 37.735 V 24.428 A 5.947 5.947 0 0 1 112.435 18.481 Z M 111.134 26.311 V 35.852 A 3.624 3.624 0 0 0 114.758 39.476 H 117.902 A 3.624 3.624 0 0 0 121.526 35.852 V 26.311 A 3.624 3.624 0 0 0 117.902 22.687 H 114.758 A 3.624 3.624 0 0 0 111.134 26.311 Z" style="paint-order: fill; opacity: 0.9; fill: rgb(255, 255, 255); stroke: rgb(255, 255, 255);" transform="matrix(1, 0, 0, 1, 48.00104013321217, 45.3572022899163)" bx:shape="frame 106.488 18.481 19.684 25.201 4.646 4.206 5.947 5.947 5.947 5.947 1@b61b34fa"></path>
  <path d="M 155.653 18.481 H 163.443 A 5.947 5.947 0 0 1 169.39 24.428 V 37.735 A 5.947 5.947 0 0 1 163.443 43.682 H 155.653 A 5.947 5.947 0 0 1 149.706 37.735 V 24.428 A 5.947 5.947 0 0 1 155.653 18.481 Z M 154.352 26.311 V 35.852 A 3.624 3.624 0 0 0 157.976 39.476 H 161.12 A 3.624 3.624 0 0 0 164.744 35.852 V 26.311 A 3.624 3.624 0 0 0 161.12 22.687 H 157.976 A 3.624 3.624 0 0 0 154.352 26.311 Z" style="paint-order: fill; opacity: 0.9; fill: rgb(255, 255, 255); stroke: rgb(255, 255, 255);" transform="matrix(1, 0, 0, 1, 48.00104013321217, 45.3572022899163)" bx:shape="frame 149.706 18.481 19.684 25.201 4.646 4.206 5.947 5.947 5.947 5.947 1@4b9fcbd1"></path>
  <path d="M 68.427 189.739 H 76.217 A 5.947 5.947 0 0 1 82.164 195.686 V 208.993 A 5.947 5.947 0 0 1 76.217 214.94 H 68.427 A 5.947 5.947 0 0 1 62.48 208.993 V 195.686 A 5.947 5.947 0 0 1 68.427 189.739 Z M 67.126 197.569 V 207.11 A 3.624 3.624 0 0 0 70.75 210.734 H 73.894 A 3.624 3.624 0 0 0 77.518 207.11 V 197.569 A 3.624 3.624 0 0 0 73.894 193.945 H 70.75 A 3.624 3.624 0 0 0 67.126 197.569 Z" style="paint-order: fill; opacity: 0.9; fill: rgb(255, 255, 255); stroke: rgb(255, 255, 255);" transform="matrix(1, 0, 0, 1, 48.00104013321217, 45.3572022899163)" bx:shape="frame 62.48 189.739 19.684 25.201 4.646 4.206 5.947 5.947 5.947 5.947 1@9ab8be80"></path>
  <path d="M 112.435 189.739 H 120.225 A 5.947 5.947 0 0 1 126.172 195.686 V 208.993 A 5.947 5.947 0 0 1 120.225 214.94 H 112.435 A 5.947 5.947 0 0 1 106.488 208.993 V 195.686 A 5.947 5.947 0 0 1 112.435 189.739 Z M 111.134 197.569 V 207.11 A 3.624 3.624 0 0 0 114.758 210.734 H 117.902 A 3.624 3.624 0 0 0 121.526 207.11 V 197.569 A 3.624 3.624 0 0 0 117.902 193.945 H 114.758 A 3.624 3.624 0 0 0 111.134 197.569 Z" style="paint-order: fill; opacity: 0.9; fill: rgb(255, 255, 255); stroke: rgb(255, 255, 255);" transform="matrix(1, 0, 0, 1, 48.00104013321217, 45.3572022899163)" bx:shape="frame 106.488 189.739 19.684 25.201 4.646 4.206 5.947 5.947 5.947 5.947 1@b5584278"></path>
  <path d="M 155.653 189.739 H 163.443 A 5.947 5.947 0 0 1 169.39 195.686 V 208.993 A 5.947 5.947 0 0 1 163.443 214.94 H 155.653 A 5.947 5.947 0 0 1 149.706 208.993 V 195.686 A 5.947 5.947 0 0 1 155.653 189.739 Z M 154.352 197.569 V 207.11 A 3.624 3.624 0 0 0 157.976 210.734 H 161.12 A 3.624 3.624 0 0 0 164.744 207.11 V 197.569 A 3.624 3.624 0 0 0 161.12 193.945 H 157.976 A 3.624 3.624 0 0 0 154.352 197.569 Z" style="paint-order: fill; opacity: 0.9; fill: rgb(255, 255, 255); stroke: rgb(255, 255, 255);" transform="matrix(1, 0, 0, 1, 48.00104013321217, 45.3572022899163)" bx:shape="frame 149.706 189.739 19.684 25.201 4.646 4.206 5.947 5.947 5.947 5.947 1@6640b00b"></path>
  <path d="M 471.729 125.716 H 479.519 A 5.947 5.947 0 0 1 485.466 131.663 V 144.97 A 5.947 5.947 0 0 1 479.519 150.917 H 471.729 A 5.947 5.947 0 0 1 465.782 144.97 V 131.663 A 5.947 5.947 0 0 1 471.729 125.716 Z M 470.428 133.546 V 143.087 A 3.624 3.624 0 0 0 474.052 146.711 H 477.196 A 3.624 3.624 0 0 0 480.82 143.087 V 133.546 A 3.624 3.624 0 0 0 477.196 129.922 H 474.052 A 3.624 3.624 0 0 0 470.428 133.546 Z" style="paint-order: fill; opacity: 0.9; fill: rgb(255, 255, 255); stroke: rgb(255, 255, 255);" transform="matrix(0, -1, 1, 0, 110.56235757705988, 680.2751710399164)" bx:shape="frame 465.782 125.716 19.684 25.201 4.646 4.206 5.947 5.947 5.947 5.947 1@596f6063"></path>
  <path d="M 515.737 125.716 H 523.527 A 5.947 5.947 0 0 1 529.474 131.663 V 144.97 A 5.947 5.947 0 0 1 523.527 150.917 H 515.737 A 5.947 5.947 0 0 1 509.79 144.97 V 131.663 A 5.947 5.947 0 0 1 515.737 125.716 Z M 514.436 133.546 V 143.087 A 3.624 3.624 0 0 0 518.06 146.711 H 521.204 A 3.624 3.624 0 0 0 524.828 143.087 V 133.546 A 3.624 3.624 0 0 0 521.204 129.922 H 518.06 A 3.624 3.624 0 0 0 514.436 133.546 Z" style="paint-order: fill; opacity: 0.9; fill: rgb(255, 255, 255); stroke: rgb(255, 255, 255);" transform="matrix(0, -1, 1, 0, 110.56235757705988, 680.2751710399164)" bx:shape="frame 509.79 125.716 19.684 25.201 4.646 4.206 5.947 5.947 5.947 5.947 1@7623c32c"></path>
  <path d="M 558.955 125.716 H 566.745 A 5.947 5.947 0 0 1 572.692 131.663 V 144.97 A 5.947 5.947 0 0 1 566.745 150.917 H 558.955 A 5.947 5.947 0 0 1 553.008 144.97 V 131.663 A 5.947 5.947 0 0 1 558.955 125.716 Z M 557.654 133.546 V 143.087 A 3.624 3.624 0 0 0 561.278 146.711 H 564.422 A 3.624 3.624 0 0 0 568.046 143.087 V 133.546 A 3.624 3.624 0 0 0 564.422 129.922 H 561.278 A 3.624 3.624 0 0 0 557.654 133.546 Z" style="paint-order: fill; opacity: 0.9; fill: rgb(255, 255, 255); stroke: rgb(255, 255, 255);" transform="matrix(0, -1, 1, 0, 110.56235757705988, 680.2751710399164)" bx:shape="frame 553.008 125.716 19.684 25.201 4.646 4.206 5.947 5.947 5.947 5.947 1@b040859b"></path>
  <path d="M 471.729 125.716 H 479.519 A 5.947 5.947 0 0 1 485.466 131.663 V 144.97 A 5.947 5.947 0 0 1 479.519 150.917 H 471.729 A 5.947 5.947 0 0 1 465.782 144.97 V 131.663 A 5.947 5.947 0 0 1 471.729 125.716 Z M 470.428 133.546 V 143.087 A 3.624 3.624 0 0 0 474.052 146.711 H 477.196 A 3.624 3.624 0 0 0 480.82 143.087 V 133.546 A 3.624 3.624 0 0 0 477.196 129.922 H 474.052 A 3.624 3.624 0 0 0 470.428 133.546 Z" style="paint-order: fill; opacity: 0.9; fill: rgb(255, 255, 255); stroke: rgb(255, 255, 255);" transform="matrix(0, -1, 1, 0, -62.0088475621003, 680.2751710399164)" bx:shape="frame 465.782 125.716 19.684 25.201 4.646 4.206 5.947 5.947 5.947 5.947 1@596f6063"></path>
  <path d="M 515.737 125.716 H 523.527 A 5.947 5.947 0 0 1 529.474 131.663 V 144.97 A 5.947 5.947 0 0 1 523.527 150.917 H 515.737 A 5.947 5.947 0 0 1 509.79 144.97 V 131.663 A 5.947 5.947 0 0 1 515.737 125.716 Z M 514.436 133.546 V 143.087 A 3.624 3.624 0 0 0 518.06 146.711 H 521.204 A 3.624 3.624 0 0 0 524.828 143.087 V 133.546 A 3.624 3.624 0 0 0 521.204 129.922 H 518.06 A 3.624 3.624 0 0 0 514.436 133.546 Z" style="paint-order: fill; opacity: 0.9; fill: rgb(255, 255, 255); stroke: rgb(255, 255, 255);" transform="matrix(0, -1, 1, 0, -62.0088475621003, 680.2751710399164)" bx:shape="frame 509.79 125.716 19.684 25.201 4.646 4.206 5.947 5.947 5.947 5.947 1@7623c32c"></path>
  <path d="M 558.955 125.716 H 566.745 A 5.947 5.947 0 0 1 572.692 131.663 V 144.97 A 5.947 5.947 0 0 1 566.745 150.917 H 558.955 A 5.947 5.947 0 0 1 553.008 144.97 V 131.663 A 5.947 5.947 0 0 1 558.955 125.716 Z M 557.654 133.546 V 143.087 A 3.624 3.624 0 0 0 561.278 146.711 H 564.422 A 3.624 3.624 0 0 0 568.046 143.087 V 133.546 A 3.624 3.624 0 0 0 564.422 129.922 H 561.278 A 3.624 3.624 0 0 0 557.654 133.546 Z" style="paint-order: fill; opacity: 0.9; fill: rgb(255, 255, 255); stroke: rgb(255, 255, 255);" transform="matrix(0, -1, 1, 0, -62.0088475621003, 680.2751710399164)" bx:shape="frame 553.008 125.716 19.684 25.201 4.646 4.206 5.947 5.947 5.947 5.947 1@b040859b"></path>
</svg>