<svg width="199" height="33" viewBox="0 0 199 33" fill="none" xmlns="http://www.w3.org/2000/svg">
<g clip-path="url(#clip0_85_5490)">
<path d="M8.78866 32.2182C5.6551 32.2182 3.53689 31.698 2.43856 30.6575C1.34023 29.6185 0.789551 27.6638 0.789551 24.7892V18.2671L8.3617 16.8665V26.3103H23.1032V0.781494H30.63V24.7892C30.63 27.6638 30.0733 29.6185 28.963 30.6575C27.8511 31.698 25.7344 32.2182 22.6144 32.2182H8.78866Z" fill="white"/>
<path d="M38.5073 32.2182L56.7489 0.781494H63.9817L82.4677 32.2182H74.0492L68.3825 21.9617L49.8241 25.3051L48.7981 27.1128L45.9814 32.2182H38.5073ZM52.9365 19.669H67.0624L60.1058 6.87897L52.9365 19.669Z" fill="white"/>
<path d="M92.8518 32.2182V0.781494H120.482C123.033 0.781494 124.88 1.26941 126.024 2.2423C127.167 3.21519 127.737 4.76417 127.737 6.88926V10.7088C127.737 12.2137 127.261 13.4144 126.307 14.3139C125.352 15.2147 123.982 15.7731 122.198 15.9906C124.05 16.2288 125.482 16.8739 126.491 17.9261C127.499 18.9798 128.003 20.3481 128.003 22.0366V26.062C128.003 28.1445 127.215 29.6904 125.643 30.7015C124.07 31.7126 121.678 32.2182 118.471 32.2182H92.8518ZM117.343 5.91195H100.246V13.3733H117.343C118.643 13.3733 119.542 13.2057 120.04 12.8692C120.538 12.5355 120.787 11.9536 120.787 11.1232V8.16342C120.787 7.35512 120.538 6.77608 120.04 6.43072C119.542 6.08536 118.643 5.91195 117.343 5.91195ZM117.343 18.5478H100.246V26.569H117.343C118.78 26.569 119.75 26.3618 120.254 25.9443C120.757 25.5256 121.009 24.7892 121.009 23.737V21.3518C121.009 20.2967 120.757 19.5663 120.254 19.1606C119.75 18.752 118.78 18.5478 117.343 18.5478Z" fill="white"/>
<path d="M150.006 32.2182H142.48V0.781494H150.006V32.2182Z" fill="white"/>
<path d="M166.469 32.2182V0.781494H173.996V26.3103H198.21V32.2182H166.469Z" fill="white"/>
<path d="M55.4377 15.1956L48.7979 27.1128L95.9206 15.2133L55.4377 15.1956Z" fill="#15BEF0"/>
</g>
<defs>
<clipPath id="clip0_85_5490">
<rect width="199" height="33" fill="white"/>
</clipPath>
</defs>
</svg>
