<svg width="43" height="37" viewBox="0 0 43 37" fill="none" xmlns="http://www.w3.org/2000/svg">
<path d="M2.88515 1.00184H29.1298C30.1693 1.00184 31.0072 1.79506 31.0072 2.76293V29.2376C31.0072 30.2127 30.1616 30.9987 29.1298 30.9987H18.8662M24.1183 16.0003H42M42 16.0003L36.1429 11.3647M42 16.0003L36.1429 20.6359M16.3372 35.8963L2.23349 31.137C1.4965 30.8895 1 30.2273 1 29.4923V2.74838C1.00776 1.54035 2.28004 0.696192 3.49801 1.10372L17.5939 5.86304C18.3309 6.11047 18.8274 6.7727 18.8274 7.50771V34.2516C18.8274 35.4596 17.5474 36.3038 16.3372 35.8963Z" stroke="white" stroke-width="1.65" stroke-linecap="round" stroke-linejoin="round"/>
</svg>
