<svg width="31" height="31" viewBox="0 0 31 31" fill="none" xmlns="http://www.w3.org/2000/svg">
<path d="M29.7821 19.4336L27.516 17.4961C27.6232 16.8388 27.6786 16.1676 27.6786 15.4964C27.6786 14.8252 27.6232 14.1539 27.516 13.4966L29.7821 11.5591C29.9531 11.4128 30.0754 11.2179 30.1329 11.0003C30.1904 10.7828 30.1803 10.5529 30.1039 10.3412L30.0728 10.2513C29.4489 8.50761 28.5147 6.89121 27.3153 5.48018L27.253 5.40752C27.1075 5.23644 26.9136 5.11346 26.6968 5.05478C26.48 4.99611 26.2505 5.00449 26.0386 5.07884L23.2258 6.07872C22.1878 5.22761 21.0288 4.5564 19.7763 4.08587L19.2331 1.14502C19.1922 0.923737 19.0848 0.720162 18.9254 0.56134C18.7659 0.402518 18.5619 0.295968 18.3405 0.255845L18.2471 0.238546C16.4445 -0.0866769 14.5485 -0.0866769 12.746 0.238546L12.6526 0.255845C12.4311 0.295968 12.2271 0.402518 12.0677 0.56134C11.9083 0.720162 11.8009 0.923737 11.7599 1.14502L11.2133 4.09971C9.97081 4.57034 8.81378 5.24119 7.78805 6.08564L4.95446 5.07884C4.7426 5.0039 4.51295 4.99522 4.29604 5.05393C4.07912 5.11263 3.88521 5.23596 3.74006 5.40752L3.67779 5.48018C2.47981 6.89221 1.54576 8.50834 0.920307 10.2513L0.889169 10.3412C0.733477 10.7737 0.86149 11.2581 1.21093 11.5591L3.50479 13.5173C3.39754 14.1678 3.34564 14.8321 3.34564 15.4929C3.34564 16.1572 3.39754 16.8215 3.50479 17.4685L1.21093 19.4267C1.04 19.573 0.917666 19.7679 0.860189 19.9855C0.802713 20.203 0.812821 20.4329 0.889169 20.6446L0.920307 20.7345C1.54654 22.4783 2.47377 24.0871 3.67779 25.5056L3.74006 25.5783C3.88556 25.7494 4.07948 25.8723 4.29627 25.931C4.51306 25.9897 4.74253 25.9813 4.95446 25.907L7.78805 24.9002C8.81908 25.7478 9.9712 26.419 11.2133 26.8861L11.7599 29.8408C11.8009 30.0621 11.9083 30.2656 12.0677 30.4245C12.2271 30.5833 12.4311 30.6898 12.6526 30.73L12.746 30.7473C14.5651 31.0742 16.428 31.0742 18.2471 30.7473L18.3405 30.73C18.5619 30.6898 18.7659 30.5833 18.9254 30.4245C19.0848 30.2656 19.1922 30.0621 19.2331 29.8408L19.7763 26.8999C21.0283 26.4306 22.1939 25.7572 23.2258 24.9071L26.0386 25.907C26.2505 25.9819 26.4801 25.9906 26.697 25.9319C26.9139 25.8732 27.1079 25.7498 27.253 25.5783L27.3153 25.5056C28.5193 24.0836 29.4465 22.4783 30.0728 20.7345L30.1039 20.6446C30.2596 20.219 30.1316 19.7346 29.7821 19.4336ZM25.0595 13.9048C25.146 14.4273 25.191 14.9635 25.191 15.4998C25.191 16.0361 25.146 16.5724 25.0595 17.0948L24.8311 18.4822L27.4156 20.693C27.0238 21.5956 26.5293 22.4501 25.9417 23.2394L22.731 22.1012L21.6446 22.9938C20.8177 23.6719 19.8974 24.2047 18.901 24.5784L17.5828 25.0731L16.9635 28.4292C15.9863 28.5399 14.9998 28.5399 14.0227 28.4292L13.4033 25.0662L12.0955 24.5646C11.1095 24.1909 10.1926 23.6581 9.37265 22.9834L8.28627 22.0873L5.05479 23.236C4.46662 22.4437 3.97533 21.5891 3.58091 20.6896L6.19308 18.458L5.96819 17.074C5.88515 16.5585 5.84017 16.0257 5.84017 15.4998C5.84017 14.9705 5.88169 14.4411 5.96819 13.9256L6.19308 12.5417L3.58091 10.3101C3.97187 9.40707 4.46662 8.55596 5.05479 7.76366L8.28627 8.91232L9.37265 8.01623C10.1926 7.34156 11.1095 6.80875 12.0955 6.43509L13.4068 5.94033L14.0261 2.57739C14.9983 2.46667 15.9913 2.46667 16.967 2.57739L17.5863 5.93341L18.9045 6.42817C19.8974 6.80183 20.8212 7.33464 21.6481 8.01277L22.7345 8.9054L25.9452 7.76712C26.5334 8.55942 27.0247 9.41399 27.4191 10.3135L24.8346 12.5244L25.0595 13.9048ZM15.5 9.06455C12.137 9.06455 9.41071 11.7909 9.41071 15.1538C9.41071 18.5168 12.137 21.2431 15.5 21.2431C18.8629 21.2431 21.5893 18.5168 21.5893 15.1538C21.5893 11.7909 18.8629 9.06455 15.5 9.06455ZM18.2402 17.894C17.8808 18.2544 17.4537 18.5403 16.9834 18.735C16.5131 18.9298 16.009 19.0296 15.5 19.0288C14.4655 19.0288 13.4933 18.624 12.7598 17.894C12.3994 17.5346 12.1136 17.1075 11.9188 16.6372C11.7241 16.167 11.6242 15.6628 11.625 15.1538C11.625 14.1194 12.0298 13.1471 12.7598 12.4137C13.4933 11.6802 14.4655 11.2788 15.5 11.2788C16.5345 11.2788 17.5067 11.6802 18.2402 12.4137C18.6006 12.7731 18.8864 13.2002 19.0812 13.6704C19.2759 14.1407 19.3758 14.6448 19.375 15.1538C19.375 16.1883 18.9702 17.1605 18.2402 17.894Z" fill="white"/>
</svg>
