<svg width="29" height="36" viewBox="0 0 29 36" fill="none" xmlns="http://www.w3.org/2000/svg">
<path d="M23.0294 26.5714C23.0294 28.4571 21.5112 30 19.6347 30.0171C17.7582 30.0171 16.2229 28.4914 16.2059 26.6057C16.2059 25.0457 17.2465 23.6571 18.7647 23.28V6C18.7647 5.52 19.14 5.14286 19.6176 5.14286C20.0953 5.14286 20.4706 5.52 20.4706 6V23.2629C21.9718 23.6571 23.0294 25.0114 23.0294 26.5714ZM4.26471 8.57143C1.91059 8.57143 0 6.65143 0 4.28571C0 1.92 1.91059 0 4.26471 0C6.61882 0 8.52941 1.92 8.52941 4.28571C8.52941 6.65143 6.61882 8.57143 4.26471 8.57143ZM4.26471 6.85714C5.68059 6.85714 6.82353 5.70857 6.82353 4.28571C6.82353 2.86286 5.68059 1.71429 4.26471 1.71429C2.84882 1.71429 1.70588 2.86286 1.70588 4.28571C1.70588 5.70857 2.84882 6.85714 4.26471 6.85714ZM25.5882 6V19.3371C27.7547 21.1029 29 23.76 29 26.5714C29 31.7829 24.8035 36 19.6176 36C14.4318 36 10.2353 31.7829 10.2353 26.5714C10.2353 23.76 11.4806 21.1029 13.6471 19.3371V6C13.6471 2.69143 16.3253 0 19.6176 0C22.91 0 25.5882 2.69143 25.5882 6ZM24.2235 20.4343C24.0018 20.28 23.8824 20.0229 23.8824 19.7486V6C23.8824 3.63429 21.9718 1.71429 19.6176 1.71429C17.2635 1.71429 15.3529 3.63429 15.3529 6V19.7486C15.3529 20.0229 15.2335 20.28 15.0118 20.4343C13.0841 21.8743 11.9412 24.1543 11.9412 26.5714C11.9412 30.84 15.37 34.2857 19.6176 34.2857C23.8653 34.2857 27.2941 30.84 27.2941 26.5714C27.2941 24.1543 26.1512 21.8743 24.2235 20.4343Z" fill="white"/>
</svg>
